<svg width="92" height="92" viewBox="0 0 92 92" fill="none" xmlns="http://www.w3.org/2000/svg">
<rect width="92" height="92" fill="#F5F5F5"/>
<rect width="1440" height="9062" transform="translate(-180 -721)" fill="white"/>
<g filter="url(#filter0_d_0_1)">
<rect x="-80" y="-40" width="1240" height="341" rx="20" fill="white"/>
</g>
<circle cx="46" cy="46" r="46" fill="#E9E9EC"/>
<path d="M40.0476 21C36.4688 28.7248 27.8657 22.303 23.381 26.9524C24.4254 18.9551 31.4047 25.3993 40.0476 21ZM29.3333 28.1429V42.7262L37.6667 47.1905V38.8571L54.3333 47.1905V38.8571L71 47.1905V71H21V28.1429H29.3333ZM64.4524 54.9286H56.119V62.0714H64.4524V54.9286ZM50.1667 54.9286H41.8333V62.0714H50.1667V54.9286ZM35.881 54.9286H27.5476V62.0714H35.881V54.9286Z" fill="#0B7572"/>
<defs>
<filter id="filter0_d_0_1" x="-100" y="-56" width="1280" height="381" filterUnits="userSpaceOnUse" color-interpolation-filters="sRGB">
<feFlood flood-opacity="0" result="BackgroundImageFix"/>
<feColorMatrix in="SourceAlpha" type="matrix" values="0 0 0 0 0 0 0 0 0 0 0 0 0 0 0 0 0 0 127 0" result="hardAlpha"/>
<feOffset dy="4"/>
<feGaussianBlur stdDeviation="10"/>
<feColorMatrix type="matrix" values="0 0 0 0 0 0 0 0 0 0 0 0 0 0 0 0 0 0 0.15 0"/>
<feBlend mode="normal" in2="BackgroundImageFix" result="effect1_dropShadow_0_1"/>
<feBlend mode="normal" in="SourceGraphic" in2="effect1_dropShadow_0_1" result="shape"/>
</filter>
</defs>
</svg>
